<svg xmlns="http://www.w3.org/2000/svg" width="22" height="22" viewBox="0 0 22 22">
  <path fill="currentColor" d="M57.0099215,0 L38.9900785,0 C37.891,0 37,0.891 37,1.99007853 L37,20.0098639 C37,21.109 37.891,22 38.9900785,22 L57.0098639,22 C58.109,22 59,21.109 59,20.0098639 L59,1.99007853 C59,0.891 58.109,0 57.0099215,0 Z M43.807733,18.9962513 C43.807733,19.3161152 43.5484555,19.5753927 43.2285916,19.5753927 L40.7633246,19.5753927 C40.4434607,19.5753927 40.1841832,19.3161152 40.1841832,18.9962513 L40.1841832,8.66195288 C40.1841832,8.34208901 40.4434607,8.08281152 40.7633246,8.08281152 L43.2285916,8.08281152 C43.5484555,8.08281152 43.807733,8.34208901 43.807733,8.66195288 L43.807733,18.9962513 Z M41.9959581,7.10864921 C40.7025079,7.10864921 39.6539372,6.06007853 39.6539372,4.76662827 C39.6539372,3.47317801 40.7025079,2.42460733 41.9959581,2.42460733 C43.2894084,2.42460733 44.3379791,3.47317801 44.3379791,4.76662827 C44.3379791,6.06007853 43.289466,7.10864921 41.9959581,7.10864921 Z M56.6911518,19.0429005 C56.6911518,19.3369634 56.4527225,19.5753927 56.1586597,19.5753927 L53.5132461,19.5753927 C53.2191832,19.5753927 52.9807539,19.3369634 52.9807539,19.0429005 L52.9807539,14.1955288 C52.9807539,13.4724084 53.1928639,11.0267801 51.091,11.0267801 C49.4606387,11.0267801 49.1299476,12.7007382 49.0635445,13.4519634 L49.0635445,19.0429005 C49.0635445,19.3369634 48.8251728,19.5753927 48.5310524,19.5753927 L45.9724869,19.5753927 C45.6784241,19.5753927 45.4399948,19.3369634 45.4399948,19.0429005 L45.4399948,8.61530366 C45.4399948,8.32124084 45.6784241,8.08281152 45.9724869,8.08281152 L48.5310524,8.08281152 C48.8251152,8.08281152 49.0635445,8.32124084 49.0635445,8.61530366 L49.0635445,9.51690052 C49.6680838,8.60965969 50.5665131,7.90940314 52.4794188,7.90940314 C56.7153979,7.90940314 56.6911518,11.8668691 56.6911518,14.0412984 L56.6911518,19.0429005 L56.6911518,19.0429005 Z" transform="translate(-37)"/>
</svg>
