<svg xmlns="http://www.w3.org/2000/svg" width="23" height="19" viewBox="0 0 23 19">
  <path fill="currentColor" d="M96.6342003,4.21028921 C96.1231763,4.43533339 95.5926938,4.61287382 95.0483604,4.74140685 C95.6481533,4.17537144 96.0991195,3.46738165 96.353538,2.67713741 L96.353538,2.67713741 C96.4261569,2.45153632 96.1794209,2.25645347 95.9742935,2.37724556 L95.9742935,2.37724556 C95.2170381,2.82332424 94.4013511,3.15796678 93.5498314,3.3719843 C93.5004281,3.38440322 93.4494547,3.39069622 93.398313,3.39069622 C93.2432057,3.39069622 93.0924164,3.33350236 92.9738148,3.22969578 C92.0678449,2.43672272 90.9026339,2 89.6928982,2 C89.1694252,2 88.6409054,2.08102927 88.1219746,2.24086021 C86.5141527,2.73611335 85.2735751,4.05324278 84.8843489,5.67828345 C84.7383261,6.28781293 84.6987922,6.89789931 84.7667568,7.49155707 C84.7745514,7.55977759 84.7420832,7.60739273 84.7220639,7.62972451 C84.686904,7.66887474 84.6370521,7.69131789 84.5852936,7.69131789 C84.5795178,7.69131789 84.5735737,7.69103944 84.5676856,7.69048254 C81.0482201,7.36575286 77.8745215,5.68184763 75.6311861,2.94901707 L75.6311861,2.94901707 C75.5167903,2.80962444 75.2974195,2.82672134 75.2062393,2.98204137 L75.2062393,2.98204137 C74.766937,3.73051795 74.5347808,4.58658804 74.5347808,5.45769448 C74.5347808,6.79270048 75.0748524,8.05079828 76.0129541,8.96796054 C75.6184567,8.87506925 75.2366327,8.72877103 74.8819496,8.53313129 L74.8819496,8.53313129 C74.7103559,8.43845791 74.4992283,8.56014104 74.4968171,8.75505682 L74.4968171,8.75505682 C74.4722556,10.738297 75.6414481,12.5030087 77.3929376,13.2976525 C77.3576656,13.2984879 77.3223935,13.2988777 77.2870654,13.2988777 C77.0094313,13.2988777 76.7283204,13.2722578 76.4516395,13.2197419 L76.4516395,13.2197419 C76.2584003,13.1830977 76.0960592,13.3651491 76.156061,13.5512101 L76.156061,13.5512101 C76.7245633,15.3138613 78.2527567,16.6131142 80.0815195,16.9081053 C78.5637563,17.9199409 76.796285,18.453676 74.9566994,18.453676 L74.3832063,18.4533419 C74.2065097,18.4533419 74.0570661,18.5677296 74.0120368,18.7376961 C73.9676804,18.9051009 74.0493837,19.0816946 74.2000609,19.1687384 C76.2729802,20.3668022 78.6374406,21 81.0388554,21 C83.1408783,21 85.1071404,20.5857204 86.8830792,19.7687449 C88.5111446,19.0197671 89.9498402,17.9491226 91.1591833,16.5865499 C92.2857577,15.3172584 93.1667176,13.851993 93.7775015,12.2315189 C94.3597425,10.6868392 94.6674896,9.03863143 94.6674896,7.46504852 L94.6674896,7.39008949 C94.6674335,7.13742295 94.7825023,6.89968139 94.9832557,6.73784561 C95.7450533,6.12358246 96.4084368,5.40050063 96.9549011,4.58870426 L96.9549011,4.58870426 C97.0991856,4.3743526 96.8716277,4.10570297 96.6342003,4.21028921 L96.6342003,4.21028921 Z" transform="translate(-74 -2)"/>
</svg>
