<svg xmlns="http://www.w3.org/2000/svg" width="20" height="20" viewBox="0 0 20 20">
  <path fill="#FFF" fill-rule="evenodd" d="M289.991407,54.1442052 L293.939969,49.85525 C294.144205,49.651014 294.076127,49.3106208 293.871891,49.1063848 C293.667655,48.9021488 293.327261,48.9021488 293.123025,49.1063848 L291.625295,47.880969 C290.604115,46.9959465 289.242542,46.9278679 288.153284,47.6086544 L287.676733,47.1321038 C287.404418,46.9278679 286.995947,46.9278679 286.723632,47.2001825 C286.451317,47.4724971 286.519396,47.880969 286.791711,48.1532836 L287.268261,48.5617556 C286.655553,49.7190927 286.859789,51.0806657 287.81289,52.0337669 L289.174463,53.39534 C288.970227,53.5995759 288.970227,53.9399692 289.242542,54.1442052 C289.446778,54.3484411 289.787171,54.3484411 289.991407,54.1442052 Z M292.986868,53.3272613 L293.327261,52.9187894 C293.599576,52.6464748 293.531497,52.1699242 293.123025,51.7614523 L291.829531,53.191104 C292.238003,53.5314973 292.714553,53.5995759 292.986868,53.3272613 Z M283.251621,57.4119805 C279.166901,53.6676546 278.894587,47.3363398 282.638913,43.2516206 C286.383239,39.1669014 292.714553,38.8945868 296.799273,42.6389127 C300.815913,46.3832387 301.088228,52.7145534 297.411981,56.7992726 C293.667655,60.8159132 287.33634,61.0882278 283.251621,57.4119805 Z" transform="translate(-280 -40)"/>
</svg>
