<svg xmlns="http://www.w3.org/2000/svg" width="22" height="22" viewBox="0 0 22 22">
  <path fill="currentColor" d="M19.0353805,0 L2.96456573,0 C1.32731387,0 0,1.32725031 0,2.96454397 L0,19.0353484 C0,20.6726421 1.32726005,21.9998924 2.96456573,21.9998924 L10.8906149,21.9998924 L10.9041232,14.1383211 L8.86167545,14.1383211 C8.59624497,14.1383211 8.38081143,13.9236964 8.37978889,13.6582679 L8.36999401,11.1241573 C8.36897146,10.8572757 8.58505082,10.6403906 8.85193439,10.6403906 L10.8906687,10.6403906 L10.8906687,8.19179624 C10.8906687,5.35022554 12.6261384,3.80296878 15.1610211,3.80296878 L17.2410876,3.80296878 C17.5072177,3.80296878 17.723028,4.01872364 17.723028,4.28490562 L17.723028,6.42168068 C17.723028,6.68775502 17.5073792,6.90345607 17.2413567,6.90361752 L15.964847,6.90420952 C14.5862984,6.90420952 14.319361,7.55927767 14.319361,8.52062194 L14.319361,10.6404444 L17.3485084,10.6404444 C17.6371344,10.6404444 17.8610712,10.8924724 17.8270582,11.1791051 L17.5266999,13.7132157 C17.497961,13.9557179 17.2923224,14.1384287 17.04815,14.1384287 L14.3328694,14.1384287 L14.319361,22 L19.0354881,22 C20.6727399,22 22,20.6727497 22,19.0355098 L22,2.96454397 C21.9999462,1.32725031 20.6726861,0 19.0353805,0 Z"/>
</svg>
