<svg xmlns="http://www.w3.org/2000/svg" width="22" height="22" viewBox="0 0 22 22">
  <g fill="currentColor">
    <path d="M15.4460814,0 L6.55391863,0 C2.94007266,0 0,2.94007266 0,6.55391863 L0,15.4460814 C0,19.0599273 2.94007266,22 6.55391863,22 L15.4460814,22 C19.0599273,22 22,19.0599273 22,15.4460814 L22,6.55391863 C21.9999601,2.94007266 19.0598874,0 15.4460814,0 Z M19.7868008,15.4460814 C19.7868008,17.8433745 17.8433745,19.7868008 15.4460814,19.7868008 L6.55391863,19.7868008 C4.15662554,19.7868008 2.21319919,17.8433745 2.21319919,15.4460814 L2.21319919,6.55391863 C2.21319919,4.15658562 4.15662554,2.21319919 6.55391863,2.21319919 L15.4460814,2.21319919 C17.8433745,2.21319919 19.7868008,4.15658562 19.7868008,6.55391863 L19.7868008,15.4460814 L19.7868008,15.4460814 Z"/>
    <path d="M10.5,5 C7.46729513,5 5,7.46730379 5,10.4999807 C5,13.5326576 7.46729513,16 10.5,16 C13.5327049,16 16,13.5326962 16,10.4999807 C16,7.46726519 13.5327049,5 10.5,5 Z M10.5,13.8607284 C8.64392318,13.8607284 7.13930268,12.3561026 7.13930268,10.5000193 C7.13930268,8.64393597 8.64396177,7.13931019 10.5,7.13931019 C12.3560768,7.13931019 13.8606973,8.64393597 13.8606973,10.5000193 C13.8606973,12.356064 12.3560382,13.8607284 10.5,13.8607284 Z"/>
    <circle cx="17.5" cy="5.5" r="1.5"/>
  </g>
</svg>
