<svg xmlns="http://www.w3.org/2000/svg" width="62" height="100" viewBox="0 0 62 100">
  <g fill="none" fill-rule="evenodd" transform="translate(-28 -28)">
    <rect width="118.29" height="147.77"/>
    <path fill="currentColor" d="M56.81 28.92L51.18 47C51.1394119 47.2342621 50.9269922 47.3989957 50.69 47.38L46.55 47.38C46.3120969 47.3950621 46.0991861 47.2332499 46.05 47L42.6 35.38 39.14 47C39.0908139 47.2332499 38.8779031 47.3950621 38.64 47.38L34.5 47.38C34.2593434 47.4045048 34.0408253 47.238431 34 47L28.38 28.92C28.3701515 28.8169013 28.3701515 28.7130987 28.38 28.61 28.38 28.44 28.48 28.35 28.68 28.35L32.59 28.35C32.8399353 28.3228978 33.071129 28.4855897 33.13 28.73L36.55 41.53 40.2 29.64C40.28 29.39 40.42 29.26 40.62 29.26L44.62 29.26C44.83 29.26 44.96 29.39 45.04 29.64L48.73 41.53 52.15 28.73C52.2044864 28.4870904 52.4324538 28.3236421 52.68 28.35L56.59 28.35C56.79 28.35 56.9 28.44 56.9 28.61 56.8802043 28.7160266 56.8500601 28.8198566 56.81 28.92zM65.05 65.26L65.05 68.79C65.05 69.07 64.95 69.21 64.75 69.21 64.6556116 69.201365 64.563857 69.1741784 64.48 69.13 63.2728708 68.487361 61.9364243 68.1250507 60.57 68.07 59.4312565 68.0026469 58.3179308 68.4246919 57.51 69.23 56.6689364 70.3844754 56.284289 71.8090954 56.43 73.23L56.43 83C56.44763 83.1052093 56.4133146 83.2124516 56.3378831 83.2878831 56.2624516 83.3633146 56.1552093 83.39763 56.05 83.38L52.25 83.38C52.1447907 83.39763 52.0375484 83.3633146 51.9621169 83.2878831 51.8866854 83.2124516 51.85237 83.1052093 51.87 83L51.87 64.73C51.85237 64.6247907 51.8866854 64.5175484 51.9621169 64.4421169 52.0375484 64.3666854 52.1447907 64.33237 52.25 64.35L56.05 64.35C56.1552093 64.33237 56.2624516 64.3666854 56.3378831 64.4421169 56.4133146 64.5175484 56.44763 64.6247907 56.43 64.73L56.43 65.73C57.6975935 64.5600136 59.3760963 63.9382128 61.1 64 62.2918935 64.0042198 63.4747552 64.2069961 64.6 64.6 64.8750438 64.7019792 65.0555431 64.9667116 65.05 65.26zM34.58 100.35C34.8169922 100.331004 35.0294119 100.495738 35.07 100.73L39.63 112.73 43.32 100.73C43.3605881 100.495738 43.5730078 100.331004 43.81 100.35L48 100.35C48.21 100.35 48.31 100.44 48.31 100.61 48.3210874 100.699659 48.3210874 100.790341 48.31 100.88L41.31 121.28C39.91 125.28 37.69 127.28 34.62 127.28 33.3611726 127.332037 32.1051083 127.124395 30.93 126.67 30.7006547 126.552171 30.5546537 126.317801 30.55 126.06L30.55 122.72C30.55 122.46 30.65 122.34 30.86 122.34 31.2912569 122.42735 31.7107868 122.564956 32.11 122.75 32.674587 123.002384 33.2820782 123.144924 33.9 123.17 34.7783408 123.201098 35.6236837 122.833558 36.2 122.17 36.9268836 121.206533 37.4384132 120.098219 37.7 118.92L30.02 100.92C29.9832006 100.823628 29.9596523 100.722707 29.95 100.62 29.9402259 100.537826 29.9686756 100.455707 30.0271913 100.397191 30.085707 100.338676 30.1678255 100.310226 30.25 100.32L34.58 100.35z"/>
    <path fill="currentColor" fill-rule="nonzero" d="M52.5,117 C48.6206902,113.057618 48.6206902,106.732382 52.5,102.79 C54.4468263,100.915923 57.0692385,99.9095223 59.77,100 C62.477075,99.9121209 65.1040138,100.92609 67.05,102.81 C70.9293098,106.752382 70.9293098,113.077618 67.05,117.02 C65.1040138,118.90391 62.477075,119.917879 59.77,119.83 C57.0634658,119.909823 54.440252,118.888682 52.5,117 Z M55.93,105.68 C53.9558776,108.143278 53.9558776,111.646722 55.93,114.11 C56.9457316,115.133504 58.3280323,115.70916 59.77,115.70916 C61.2119677,115.70916 62.5942684,115.133504 63.61,114.11 C65.5841224,111.646722 65.5841224,108.143278 63.61,105.68 C62.5942684,104.656496 61.2119677,104.08084 59.77,104.08084 C58.3280323,104.08084 56.9457316,104.656496 55.93,105.68 Z"/>
    <path fill="currentColor" d="M89.94,100.73 L89.94,119 C89.95763,119.105209 89.9233146,119.212452 89.8478831,119.287883 C89.7724516,119.363315 89.6652093,119.39763 89.56,119.38 L85.76,119.38 C85.6547907,119.39763 85.5475484,119.363315 85.4721169,119.287883 C85.3966854,119.212452 85.36237,119.105209 85.38,119 L85.38,117.63 C83.7868151,119.003464 81.7534833,119.75931 79.65,119.76 C77.8533504,119.866704 76.0898309,119.242801 74.76,118.03 C73.5544942,116.790744 72.9171633,115.106887 73,113.38 L73,100.73 C72.98237,100.624791 73.0166854,100.517548 73.0921169,100.442117 C73.1675484,100.366685 73.2747907,100.33237 73.38,100.35 L77.18,100.35 C77.2852093,100.33237 77.3924516,100.366685 77.4678831,100.442117 C77.5433146,100.517548 77.57763,100.624791 77.56,100.73 L77.56,111.73 C77.56,114.36 78.64,115.73 80.82,115.73 C82.0982785,115.748954 83.3104628,115.163251 84.09,114.15 C85.0523513,112.754083 85.5076097,111.070686 85.38,109.38 L85.38,100.76 C85.36237,100.654791 85.3966854,100.547548 85.4721169,100.472117 C85.5475484,100.396685 85.6547907,100.36237 85.76,100.38 L89.56,100.38 C89.6593978,100.364492 89.7604408,100.395172 89.8344368,100.463326 C89.9084328,100.53148 89.9472994,100.629665 89.94,100.73 Z"/>
    <path fill="currentColor" fill-rule="nonzero" d="M73.08 41.52C72.9394143 41.5143568 72.8049606 41.5778488 72.72 41.69 71.677988 43.0703119 70.0042468 43.8242494 68.28 43.69 67.0416993 43.7345624 65.8329778 43.3054305 64.9 42.49 63.9930672 41.6637843 63.4143617 40.5383264 63.27 39.32L77.75 39.32C77.8542727 39.333197 77.958787 39.2974272 78.0331071 39.2231071 78.1074272 39.148787 78.143197 39.0442727 78.13 38.94L78.13 38.3C78.1922601 35.6188461 77.2425759 33.0125698 75.47 31 73.6450561 28.9715727 71.0054526 27.8702082 68.28 28 65.6454777 27.9579245 63.1083195 28.994935 61.2575096 30.8702965 59.4066997 32.745658 58.4032122 35.2962609 58.48 37.93 58.4024972 40.5693108 59.4109913 43.1248854 61.27 45 63.1213037 46.850541 65.6535095 47.8561884 68.27 47.78 72.65 47.78 75.65 45.91 77.27 42.21 77.2956173 42.1490177 77.2910062 42.07953 77.2575557 42.0224674 77.2241051 41.9654047 77.165725 41.9274368 77.1 41.92L73.08 41.52zM65.66 32.78C66.5677325 32.2525022 67.6125507 32.0087113 68.66 32.08 70.8133796 32.0274623 72.7245201 33.4515303 73.29 35.53L63.42 35.53C63.8135998 34.3748564 64.6083631 33.3991425 65.66 32.78zM81 77.53C80.8595644 77.5121097 80.7208269 77.5737708 80.64 77.69 79.5967887 79.0688087 77.9239157 79.822355 76.2 79.69 74.9603924 79.7348553 73.7495876 79.3098235 72.81 78.5 71.908775 77.6653014 71.3314625 76.5390108 71.18 75.32L85.65 75.32C85.7392206 75.3254536 85.826837 75.29448 85.8928073 75.2341643 85.9587776 75.1738486 85.9974578 75.089351 86 75L86 74.36C86.0887745 71.6618596 85.1486182 69.0308519 83.37 67 81.5447982 64.977901 78.9112586 63.8775363 76.19 64 72.2046357 64.1204535 68.6631201 66.5742615 67.1503282 70.2633127 65.6375362 73.9523638 66.4366283 78.1861516 69.19 81.07 71.0419686 82.9195294 73.5737198 83.9249963 76.19 83.85 80.57 83.85 83.58 81.98 85.19 78.28 85.2081427 78.217177 85.1973988 78.149539 85.160682 78.09543 85.1239653 78.0413211 85.0650813 78.0063496 85 78L81 77.53zM73.58 68.78C74.4870434 68.2507683 75.5324012 68.0068515 76.58 68.08 78.7333796 68.0274623 80.6445201 69.4515303 81.21 71.53L71.32 71.53C71.7137186 70.3719323 72.5128285 69.3952425 73.57 68.78L73.58 68.78zM47.54 83C47.0062678 81.9168354 46.7551483 80.7162781 46.81 79.51L46.81 71.3C46.9069622 69.2756366 46.1011997 67.3125059 44.61 65.94 42.9688887 64.5548484 40.8652267 63.8405319 38.72 63.94 36.7954155 63.8600546 34.8979483 64.4152394 33.32 65.52 32.2968394 66.2656261 31.4950479 67.2747775 31 68.44 30.9685984 68.5238334 30.9776747 68.6174704 31.0245927 68.6937122 31.0715107 68.7699539 31.1510107 68.8202534 31.24 68.83L35.36 69.27C35.5322794 69.2801642 35.7003718 69.2143889 35.82 69.09 36.6057446 68.3817224 37.6443951 68.0210799 38.7 68.09 39.6554903 68.0241683 40.5979792 68.3407294 41.32 68.97 41.9445766 69.5877196 42.275669 70.4427385 42.23 71.32L42.23 71.85C40.7130859 71.3943182 39.1431268 71.1388217 37.56 71.09 35.5902627 71.0184096 33.6545919 71.6177976 32.07 72.79 30.6189664 73.9018631 29.8045609 75.6539556 29.89 77.48 29.8245958 79.2430414 30.55971 80.9411552 31.89 82.1 33.2647707 83.2689403 35.026523 83.8823439 36.83 83.82 38.8048328 83.8734988 40.7327356 83.2131122 42.26 81.96L42.26 83C42.26 83.2098682 42.4301318 83.38 42.64 83.38L47.28 83.38C47.6 83.42 47.69 83.3 47.54 83zM40.87 78.54C39.9636678 79.2768164 38.827975 79.6730705 37.66 79.66 36.7909628 79.714322 35.9268536 79.4939217 35.19 79.03 34.619593 78.6221394 34.2903986 77.956484 34.3124892 77.2556085 34.3345798 76.5547331 34.7050403 75.9111298 35.3 75.54 36.0550059 75.1281779 36.9120207 74.9408143 37.77 75 39.2910477 75.0474101 40.7984152 75.3031242 42.25 75.76 42.256331 76.8640893 41.7457038 77.9075448 40.87 78.58L40.87 78.54z"/>
  </g>
</svg>
